<svg width="34" height="32" viewBox="0 0 34 32" fill="none" xmlns="http://www.w3.org/2000/svg">
<path d="M29.2399 4.80091H33.9999V0.267578H11.3332C11.3332 0.267578 2.26657 0.267578 2.26657 9.33424V21.8009C-0.226767 23.6142 -0.6801 27.2409 1.13323 29.7342C2.94657 32.2276 6.57323 32.6809 9.06657 30.8676C11.3332 32.6809 14.7332 32.2276 16.7732 29.9609C18.1332 31.3209 20.1732 32.0009 22.2132 32.0009C26.9732 32.0009 30.5999 28.3742 30.8266 23.6142C30.8266 19.9876 28.5599 16.8142 25.1599 15.6809V9.33424C24.9332 6.84091 26.7466 4.80091 29.2399 4.80091ZM22.6666 16.1342V17.2676C26.0666 17.4942 28.5599 20.6676 28.3332 24.0676C28.1066 27.2409 25.3866 29.7342 22.2132 29.7342C19.7199 29.9609 18.1332 28.3742 17.4532 27.4676H15.6399C15.4132 27.9209 14.7332 29.7342 12.4666 29.7342C10.1999 29.7342 9.5199 28.3742 9.29323 27.4676H8.8399C8.38657 28.3742 7.70657 29.2809 6.7999 29.5076C4.7599 30.1876 2.94657 29.0542 2.49323 27.2409C2.0399 25.4276 2.94657 23.6142 4.53323 23.1609V11.6009C4.53323 10.4676 5.4399 9.33424 6.7999 9.33424C7.93323 9.33424 9.06657 10.2409 9.06657 11.6009V21.8009C9.06657 22.4809 9.5199 22.9342 10.1999 22.9342C10.8799 22.9342 11.3332 22.4809 11.3332 21.8009V13.8676C11.3332 12.5076 12.2399 11.6009 13.5999 11.6009C14.9599 11.6009 15.8666 12.5076 15.8666 13.8676V21.8009C15.8666 22.4809 16.3199 22.9342 16.9999 22.9342C17.6799 22.9342 18.1332 22.4809 18.1332 21.8009V11.6009C18.1332 10.2409 19.0399 9.33424 20.3999 9.33424C21.7599 9.33424 22.6666 10.2409 22.6666 11.6009V16.1342Z" fill="white"/>
</svg>
