<svg width="12" height="10" viewBox="0 0 12 10" fill="none" xmlns="http://www.w3.org/2000/svg">
<path fill-rule="evenodd" clip-rule="evenodd" d="M0.501343 0.509399C0.501343 0.233257 0.7252 0.00939941 1.00134 0.00939941H11.0013C11.2775 0.00939941 11.5013 0.233257 11.5013 0.509399V8.0094C11.5013 8.28554 11.2775 8.5094 11.0013 8.5094H5.86938L3.47495 9.70661C3.31996 9.78411 3.13589 9.77583 2.98848 9.68472C2.84107 9.59362 2.75134 9.43269 2.75134 9.2594V8.5094H1.00134C0.7252 8.5094 0.501343 8.28554 0.501343 8.0094V0.509399ZM4.00134 3.8844C4.00134 3.60826 3.77749 3.3844 3.50134 3.3844C3.2252 3.3844 3.00134 3.60826 3.00134 3.8844V4.6344C3.00134 4.91054 3.2252 5.1344 3.50134 5.1344C3.77749 5.1344 4.00134 4.91054 4.00134 4.6344V3.8844ZM6.00134 3.3844C6.27749 3.3844 6.50134 3.60826 6.50134 3.8844V4.6344C6.50134 4.91054 6.27749 5.1344 6.00134 5.1344C5.7252 5.1344 5.50134 4.91054 5.50134 4.6344V3.8844C5.50134 3.60826 5.7252 3.3844 6.00134 3.3844ZM9.00134 3.8844C9.00134 3.60826 8.77748 3.3844 8.50134 3.3844C8.2252 3.3844 8.00134 3.60826 8.00134 3.8844V4.6344C8.00134 4.91054 8.2252 5.1344 8.50134 5.1344C8.77748 5.1344 9.00134 4.91054 9.00134 4.6344V3.8844Z" fill="#BFBFBF"/>
</svg>
