<svg width="17" height="16" viewBox="0 0 17 16" fill="none" xmlns="http://www.w3.org/2000/svg">
<path d="M7.3999 1H10.3999C10.676 1 10.8999 1.22386 10.8999 1.5V2.5H6.8999V1.5C6.8999 1.22386 7.12376 1 7.3999 1ZM11.8999 2.5V1.5C11.8999 0.671573 11.2283 0 10.3999 0H7.3999C6.57148 0 5.8999 0.671573 5.8999 1.5V2.5H3.40556C3.40216 2.49997 3.39875 2.49997 3.39534 2.5H2.3999C2.12376 2.5 1.8999 2.72386 1.8999 3C1.8999 3.27614 2.12376 3.5 2.3999 3.5H2.9383L3.79106 14.1595C3.87422 15.1989 4.74197 16 5.78469 16H12.0151C13.0578 16 13.9256 15.1989 14.0087 14.1595L14.8615 3.5H15.3999C15.676 3.5 15.8999 3.27614 15.8999 3C15.8999 2.72386 15.676 2.5 15.3999 2.5H14.4045C14.401 2.49997 14.3976 2.49997 14.3942 2.5H11.8999ZM13.8583 3.5L13.0119 14.0797C12.9703 14.5994 12.5365 15 12.0151 15H5.78469C5.26333 15 4.82946 14.5994 4.78788 14.0797L3.9415 3.5H13.8583ZM6.37054 4.50086C6.64621 4.48465 6.88282 4.69497 6.89904 4.97064L7.39904 13.4706C7.41526 13.7463 7.20493 13.9829 6.92926 13.9991C6.6536 14.0154 6.41698 13.805 6.40076 13.5294L5.90077 5.02936C5.88455 4.7537 6.09488 4.51708 6.37054 4.50086ZM11.4293 4.50086C11.7049 4.51708 11.9153 4.7537 11.899 5.02936L11.399 13.5294C11.3828 13.805 11.1462 14.0154 10.8705 13.9991C10.5949 13.9829 10.3846 13.7463 10.4008 13.4706L10.9008 4.97064C10.917 4.69497 11.1536 4.48465 11.4293 4.50086ZM8.8999 4.5C9.17604 4.5 9.3999 4.72386 9.3999 5V13.5C9.3999 13.7761 9.17604 14 8.8999 14C8.62376 14 8.3999 13.7761 8.3999 13.5V5C8.3999 4.72386 8.62376 4.5 8.8999 4.5Z" fill="#F8F9FA"/>
</svg>
