<svg width="19" height="18" viewBox="0 0 17 16" fill="none" xmlns="http://www.w3.org/2000/svg">
<path d="M8.5 2C7.07359 2 5.81176 2.56046 4.90576 3.34182C4.13985 4.00237 3.58479 4.8617 3.44223 5.725C1.76586 6.09512 0.5 7.55511 0.5 9.31818C0.5 11.366 2.20754 13 4.28125 13H13.1875C15.0023 13 16.5 11.5695 16.5 9.77273C16.5 8.13656 15.2581 6.80411 13.6657 6.57898C13.4233 3.99944 11.1902 2 8.5 2ZM10.8536 8.85355L8.85355 10.8536C8.65829 11.0488 8.34171 11.0488 8.14645 10.8536L6.14645 8.85355C5.95118 8.65829 5.95118 8.34171 6.14645 8.14645C6.34171 7.95118 6.65829 7.95118 6.85355 8.14645L8 9.29289V5.5C8 5.22386 8.22386 5 8.5 5C8.77614 5 9 5.22386 9 5.5V9.29289L10.1464 8.14645C10.3417 7.95118 10.6583 7.95118 10.8536 8.14645C11.0488 8.34171 11.0488 8.65829 10.8536 8.85355Z" fill="#F8F9FA"/>
</svg>
