<svg width="17" height="16" viewBox="0 0 17 16" fill="none" xmlns="http://www.w3.org/2000/svg">
<path d="M16.4015 1.93934C16.5968 2.1346 16.5968 2.45118 16.4015 2.64645L15.3586 3.68933L13.3586 1.68933L14.4015 0.646447C14.5968 0.451184 14.9133 0.451185 15.1086 0.646447L16.4015 1.93934Z" fill="#F8F9FA"/>
<path d="M14.6515 4.39644L12.6515 2.39644L5.83851 9.20943C5.78363 9.26432 5.74227 9.33123 5.71772 9.40487L4.91316 11.8186C4.84802 12.014 5.03395 12.1999 5.22939 12.1348L7.64307 11.3302C7.71671 11.3057 7.78362 11.2643 7.83851 11.2094L14.6515 4.39644Z" fill="#F8F9FA"/>
<path fill-rule="evenodd" clip-rule="evenodd" d="M1.8999 13.5C1.8999 14.3284 2.57148 15 3.3999 15H14.3999C15.2283 15 15.8999 14.3284 15.8999 13.5V7.5C15.8999 7.22386 15.676 7 15.3999 7C15.1238 7 14.8999 7.22386 14.8999 7.5V13.5C14.8999 13.7761 14.676 14 14.3999 14H3.3999C3.12376 14 2.8999 13.7761 2.8999 13.5V2.5C2.8999 2.22386 3.12376 2 3.3999 2H9.8999C10.176 2 10.3999 1.77614 10.3999 1.5C10.3999 1.22386 10.176 1 9.8999 1H3.3999C2.57148 1 1.8999 1.67157 1.8999 2.5V13.5Z" fill="#F8F9FA"/>
</svg>
