<svg width="25" height="25" viewBox="0 0 25 25" fill="none" xmlns="http://www.w3.org/2000/svg">
<g clip-path="url(#clip0_7_200)">
<rect width="24.0638" height="24.0638" transform="translate(0.297363 0.851807)" fill="white"/>
<path d="M4.69127 0.851807C2.25724 0.851807 0.297363 2.81169 0.297363 5.24572V20.5218C0.297363 22.9558 2.25724 24.9157 4.69127 24.9157H12.9707V15.5082H10.4832V12.1212H12.9707V9.22754C12.9707 6.95411 14.4405 4.86671 17.8264 4.86671C19.1972 4.86671 20.211 4.99832 20.211 4.99832L20.1312 8.16122C20.1312 8.16122 19.0974 8.15145 17.9692 8.15145C16.7483 8.15145 16.5525 8.71401 16.5525 9.64793V12.1212H20.2282L20.0681 15.5082H16.5525V24.9157H19.9673C22.4013 24.9157 24.3612 22.9558 24.3612 20.5218V5.24574C24.3612 2.81171 22.4013 0.851831 19.9673 0.851831H4.69125L4.69127 0.851807Z" fill="#4A61A5"/>
</g>
<defs>
<clipPath id="clip0_7_200">
<rect width="24.0638" height="24.0638" fill="white" transform="translate(0.297363 0.851807)"/>
</clipPath>
</defs>
</svg>
