<svg width="48" height="47" viewBox="0 0 48 47" fill="none" xmlns="http://www.w3.org/2000/svg">
<g id="Google + (Google Plus)">
<rect id="Rectangle" width="48" height="46.599" rx="23.2995" fill="#EA4335"/>
<g id="Group">
<path id="Vector" d="M35.4516 18.8047C36.4729 18.8047 37.4938 18.8047 38.5198 18.8047C38.5254 19.8012 38.5352 20.8027 38.5408 21.7988C39.5668 21.8088 40.5984 21.8137 41.6249 21.8187C41.6249 22.8152 41.6249 23.8063 41.6249 24.8028C40.5989 24.8078 39.5673 24.8128 38.5408 24.8178C38.5305 25.8193 38.5254 26.8154 38.5198 27.8169C37.4938 27.8119 36.4668 27.8169 35.446 27.8169C35.4362 26.8154 35.4362 25.8193 35.4254 24.8228C34.3994 24.8124 33.3678 24.8078 32.3413 24.8024C32.3413 23.8059 32.3413 22.8148 32.3413 21.8183C33.3678 21.8133 34.3943 21.8083 35.4254 21.7983C35.4306 20.8027 35.4408 19.8012 35.4516 18.8047Z" fill="white"/>
<path id="Vector_2" d="M7.63163 23.3122C7.42008 17.9047 12.2989 12.9076 17.8745 12.8428C20.7162 12.6075 23.4809 13.6788 25.6314 15.4261C24.7493 16.3678 23.8517 17.2986 22.8929 18.17C20.9997 17.0533 18.7202 16.2023 16.5075 16.9581C12.9387 17.9446 10.7774 22.0354 12.0981 25.4249C13.1918 28.9648 17.627 30.9076 21.1029 29.4205C22.9027 28.7948 24.0894 27.1826 24.6101 25.4503C22.5473 25.4104 20.4841 25.4353 18.4213 25.38C18.4162 24.1885 18.4111 23.0016 18.4162 21.8101C21.8562 21.8051 25.3013 21.7952 28.7464 21.8251C28.9579 24.7444 28.5143 27.8686 26.5594 30.2116C23.8825 33.5562 18.9369 34.5377 14.9137 33.2257C10.6438 31.8642 7.5387 27.6881 7.63163 23.3122Z" fill="white"/>
</g>
</g>
</svg>
