<svg width="32" height="30" viewBox="0 0 32 30" fill="none" xmlns="http://www.w3.org/2000/svg">
<g clip-path="url(#clip0_62_955)">
<path fill-rule="evenodd" clip-rule="evenodd" d="M6.8705 4.62444C5.9095 4.49556 5.15 3.69 5.15 2.675V2.53C5.15 1.40222 6.08 0.483889 7.165 0.580555C9.862 0.822222 11.691 1.69222 13.644 3.72222L23.595 14.0494C23.3625 14.1783 23.1455 14.3072 22.9595 14.42C22.386 14.7906 22.0295 15 21.177 15C20.3245 15 19.968 14.7744 19.3945 14.42C18.697 13.985 17.736 13.3889 16.0155 13.3889C14.295 13.3889 13.334 13.985 12.621 14.42C12.0475 14.7906 11.7065 15 10.8385 15C9.9705 15 9.6295 14.7906 9.056 14.42C8.7305 14.2267 8.343 13.985 7.8625 13.7917L12.9 8.55556L11.35 6.94444C10.017 5.55889 8.715 4.85 6.8705 4.62444ZM30.4925 26.1328C31.0815 26.3422 31.5 26.8578 31.5 27.5183V27.7117C31.5 28.7911 30.4615 29.5322 29.485 29.1778C28.9115 28.9683 28.4775 28.6944 28.121 28.4689C27.5475 28.1144 27.191 27.8889 26.3385 27.8889C25.4705 27.8889 25.1295 28.0983 24.556 28.4689C23.843 28.9039 22.8975 29.5 21.177 29.5C19.4565 29.5 18.4955 28.9039 17.798 28.4689C17.2245 28.1144 16.868 27.8889 16.0155 27.8889C15.1475 27.8889 14.8065 28.0983 14.233 28.4689C13.52 28.9039 12.559 29.5 10.8385 29.5C9.118 29.5 8.157 28.9039 7.4595 28.4689C6.886 28.0983 6.5295 27.8889 5.677 27.8889C4.8245 27.8889 4.468 28.0983 3.8945 28.4528C3.5225 28.6783 3.0885 28.9522 2.515 29.1617C1.523 29.5161 0.5 28.775 0.5 27.6956V27.5022C0.5 26.8578 0.9185 26.3422 1.5075 26.1328C1.771 26.02 2.0035 25.875 2.2825 25.6978C2.9955 25.2628 3.9565 24.6667 5.677 24.6667C7.3975 24.6667 8.3585 25.2628 9.056 25.6978C9.6295 26.0683 9.9705 26.2778 10.8385 26.2778C11.7065 26.2778 12.0475 26.0683 12.621 25.6978C13.334 25.2628 14.295 24.6667 16.0155 24.6667C17.736 24.6667 18.697 25.2628 19.3945 25.6978C19.968 26.0522 20.3245 26.2778 21.177 26.2778C22.0295 26.2778 22.386 26.0683 22.9595 25.6978C23.657 25.2628 24.618 24.6667 26.3385 24.6667C28.059 24.6667 29.02 25.2628 29.7175 25.6978C29.9965 25.8911 30.229 26.0361 30.4925 26.1328ZM2.2205 22.0083C1.3525 22.2661 0.5 21.5572 0.5 20.6228V20.2522C0.5 19.6078 0.9185 19.0922 1.5075 18.8828C1.771 18.77 2.0035 18.625 2.2825 18.4478C2.98 18.0128 3.941 17.4167 5.6615 17.4167C7.382 17.4167 8.343 18.0128 9.0405 18.4478C9.614 18.8022 9.9705 19.0278 10.823 19.0278C11.691 19.0278 12.032 18.8183 12.6055 18.4478C13.303 18.0128 14.264 17.4167 15.9845 17.4167C17.705 17.4167 18.666 18.0128 19.3635 18.4478C19.937 18.8022 20.2935 19.0278 21.146 19.0278C21.9985 19.0278 22.355 18.8183 22.9285 18.4478C23.626 18.0128 24.587 17.4167 26.3075 17.4167C28.028 17.4167 28.989 18.0128 29.6865 18.4478C29.981 18.625 30.2135 18.77 30.477 18.8667C31.0505 19.0922 31.469 19.6078 31.469 20.2522V20.4456C31.469 21.525 30.415 22.2822 29.4385 21.9117C28.896 21.7022 28.4775 21.4444 28.121 21.2189C27.5475 20.8644 27.191 20.6389 26.3385 20.6389C25.4705 20.6389 25.1295 20.8483 24.556 21.2189C23.8585 21.6539 22.8975 22.25 21.177 22.25C19.4565 22.25 18.4955 21.6539 17.798 21.2189C17.2245 20.8644 16.868 20.6389 16.0155 20.6389C15.1475 20.6389 14.8065 20.8483 14.233 21.2189C13.5355 21.6539 12.5745 22.25 10.854 22.25C9.1335 22.25 8.1725 21.6539 7.475 21.2189C6.9015 20.8644 6.545 20.6389 5.6925 20.6389C4.84 20.6389 4.4835 20.8483 3.91 21.2189C3.476 21.4767 2.949 21.7989 2.2205 22.0083ZM22.975 8.55556C20.8349 8.55556 19.1 6.75226 19.1 4.52778C19.1 2.3033 20.8349 0.5 22.975 0.5C25.1151 0.5 26.85 2.3033 26.85 4.52778C26.85 6.75226 25.1151 8.55556 22.975 8.55556Z" fill="white"/>
</g>
<defs>
<clipPath id="clip0_62_955">
<rect width="31" height="29" fill="white" transform="translate(0.5 0.5)"/>
</clipPath>
</defs>
</svg>
