<svg width="12" height="12" viewBox="0 0 12 12" fill="none" xmlns="http://www.w3.org/2000/svg">
<path d="M6.44888 1.03712C6.36424 0.866583 6.1901 0.758912 5.99972 0.759401C5.80934 0.75989 5.63576 0.868454 5.552 1.03942L4.13985 3.92184L0.929604 4.38735C0.741359 4.41465 0.584906 4.54639 0.525966 4.72724C0.467026 4.9081 0.515809 5.10673 0.651823 5.2397L2.97796 7.51383L2.42251 10.6728C2.3894 10.8611 2.46659 11.0519 2.62138 11.1641C2.77617 11.2764 2.98144 11.2906 3.15017 11.2006L6.00103 9.6808L8.85253 11.2006C9.02117 11.2905 9.22629 11.2764 9.38105 11.1643C9.5358 11.0522 9.61312 10.8617 9.58026 10.6734L9.02879 7.51384L11.3512 5.2394C11.487 5.10641 11.5356 4.90793 11.4767 4.72723C11.4178 4.54652 11.2616 4.41483 11.0735 4.38741L7.88058 3.92183L6.44888 1.03712Z" fill="#BFBFBF"/>
</svg>
