<svg width="48" height="47" viewBox="0 0 48 47" fill="none" xmlns="http://www.w3.org/2000/svg">
<g id="Telegram">
<g id="Rectangle">
<rect width="48" height="46.599" rx="23.2995" fill="#419FD9"/>
<rect width="48" height="46.599" rx="23.2995" fill="url(#paint0_linear_1152_33034)"/>
</g>
<path id="Vector" d="M10.7874 22.7863C17.7667 19.7722 22.4206 17.7852 24.7493 16.8251C31.3979 14.084 32.7795 13.6078 33.68 13.5919C33.878 13.5887 34.3208 13.6373 34.6077 13.868C34.8499 14.0628 34.9165 14.326 34.9484 14.5107C34.9803 14.6954 35.02 15.1161 34.9884 15.4449C34.6281 19.1973 33.0692 28.3034 32.276 32.5061C31.9404 34.2845 31.2796 34.8808 30.6399 34.9391C29.2496 35.0659 28.1938 34.0284 26.8473 33.1534C24.7401 31.7843 23.5498 30.932 21.5044 29.596C19.1407 28.052 20.673 27.2034 22.0201 25.8166C22.3726 25.4536 28.4983 19.9308 28.6169 19.4297C28.6317 19.3671 28.6455 19.1335 28.5055 19.0102C28.3655 18.8869 28.1589 18.929 28.0098 18.9626C27.7985 19.0101 24.4323 21.2155 17.9113 25.5787C16.9558 26.229 16.0904 26.5459 15.315 26.5293C14.4602 26.511 12.8159 26.0502 11.5935 25.6563C10.0942 25.1733 8.90254 24.9178 9.0063 24.0974C9.06035 23.6701 9.65403 23.233 10.7874 22.7863Z" fill="white"/>
</g>
<defs>
<linearGradient id="paint0_linear_1152_33034" x1="24" y1="0" x2="24" y2="46.2533" gradientUnits="userSpaceOnUse">
<stop stop-color="#2AABEE"/>
<stop offset="1" stop-color="#229ED9"/>
</linearGradient>
</defs>
</svg>
