<svg width="28" height="23" viewBox="0 0 28 23" fill="none" xmlns="http://www.w3.org/2000/svg">
<g clip-path="url(#clip0_7_202)">
<path d="M27.4463 3.40802C26.4473 3.85196 25.3739 4.15199 24.2472 4.28697C25.3973 3.59614 26.2804 2.50219 26.6962 1.19875C25.6029 1.84897 24.4067 2.30708 23.1593 2.55331C22.1432 1.4685 20.6958 0.790527 19.0937 0.790527C16.0176 0.790527 13.5236 3.28984 13.5236 6.37242C13.5236 6.80998 13.5729 7.23595 13.6678 7.6446C9.03868 7.41174 4.93453 5.18951 2.18729 1.81231C1.70794 2.63674 1.43327 3.59571 1.43327 4.61856C1.43327 6.55522 2.41668 8.26369 3.91114 9.26475C3.02663 9.23699 2.16157 8.99757 1.3882 8.56648C1.38788 8.58987 1.38788 8.61325 1.38788 8.63674C1.38788 11.3413 3.30782 13.5974 5.85579 14.1102C5.03558 14.3338 4.17524 14.3665 3.34048 14.2059C4.04922 16.4235 6.10628 18.0373 8.54353 18.0825C6.63728 19.5796 4.23555 20.472 1.62607 20.472C1.17642 20.472 0.733125 20.4455 0.297363 20.394C2.7623 21.9778 5.69003 22.9019 8.83549 22.9019C19.0807 22.9019 24.683 14.3961 24.683 7.01977C24.683 6.77767 24.6777 6.53694 24.6669 6.29759C25.7574 5.50759 26.6986 4.52909 27.4463 3.40802Z" fill="#55ACEE"/>
</g>
<defs>
<clipPath id="clip0_7_202">
<rect width="27.1489" height="22.2128" fill="white" transform="translate(0.297363 0.703125)"/>
</clipPath>
</defs>
</svg>
