<svg width="48" height="47" viewBox="0 0 48 47" fill="none" xmlns="http://www.w3.org/2000/svg">
<g id="Twitter">
<rect id="Rectangle" width="48" height="46.599" rx="23.2995" fill="#1DA1F2"/>
<path id="Path" d="M35.7625 18.2639C35.7625 18.5188 35.7625 18.7736 35.7625 18.9921C35.7625 26.528 29.8375 35.2289 19.0375 35.2289C15.7 35.2289 12.625 34.2824 10 32.6805C10.45 32.7169 10.9375 32.7533 11.3875 32.7533C14.125 32.7533 16.675 31.8432 18.7 30.3142C16.1125 30.2778 13.9375 28.6031 13.225 26.346C13.6 26.4188 13.9375 26.4552 14.35 26.4552C14.875 26.4552 15.4 26.3824 15.8875 26.2368C13.1875 25.7271 11.1625 23.4335 11.1625 20.6667C11.1625 20.6303 11.1625 20.6303 11.1625 20.5939C11.95 21.0308 12.85 21.2856 13.825 21.322C12.25 20.3027 11.2 18.5552 11.2 16.5529C11.2 15.4971 11.5 14.5142 11.9875 13.6769C14.875 17.1354 19.225 19.3925 24.1 19.6474C23.9875 19.2469 23.95 18.7736 23.95 18.3368C23.95 15.1695 26.575 12.6211 29.8375 12.6211C31.525 12.6211 33.0625 13.3128 34.1125 14.405C35.4625 14.1501 36.7 13.6769 37.8625 13.0216C37.4125 14.3686 36.475 15.4607 35.275 16.1888C36.475 16.0432 37.6 15.752 38.65 15.2787C37.9 16.4437 36.925 17.463 35.7625 18.2639Z" fill="white"/>
</g>
</svg>
