<svg width="48" height="47" viewBox="0 0 48 47" fill="none" xmlns="http://www.w3.org/2000/svg">
<g id="WhatsApp">
<rect id="Rectangle" width="48" height="46.599" rx="23.2995" fill="#0DC143"/>
<path id="Vector" d="M34.7504 12.8266C32.1775 10.2552 28.6207 8.85938 24.9883 8.85938C17.2694 8.85938 11.064 14.9571 11.1396 22.3773C11.1396 24.7282 11.8207 27.0057 12.9558 29.0628L10.9883 36.0422L18.3288 34.2055C20.3721 35.3075 22.6423 35.8218 24.9126 35.8218C32.5558 35.8218 38.7613 29.724 38.7613 22.3038C38.7613 18.7039 37.3234 15.3245 34.7504 12.8266ZM24.9883 33.5443C22.945 33.5443 20.9018 33.03 19.1613 32.0015L18.7072 31.7811L14.318 32.8831L15.4531 28.6955L15.1504 28.2547C11.8207 23.0385 13.4099 16.1326 18.8586 12.9001C24.3072 9.66751 31.345 11.2103 34.6748 16.4999C38.0045 21.7896 36.4153 28.622 30.9667 31.8545C29.2261 32.9565 27.1072 33.5443 24.9883 33.5443ZM31.6477 25.3894L30.8153 25.0221C30.8153 25.0221 29.6045 24.5078 28.8477 24.1405C28.7721 24.1405 28.6964 24.067 28.6207 24.067C28.3937 24.067 28.2423 24.1405 28.091 24.214C28.091 24.214 28.0153 24.2874 26.9558 25.4629C26.8802 25.6098 26.7288 25.6833 26.5775 25.6833H26.5018C26.4261 25.6833 26.2748 25.6098 26.1991 25.5364L25.8207 25.3894C24.9883 25.0221 24.2315 24.5813 23.6261 23.9936C23.4748 23.8466 23.2477 23.6997 23.0964 23.5528C22.5667 23.0385 22.0369 22.4508 21.6586 21.7896L21.5829 21.6426C21.5072 21.5692 21.5072 21.4957 21.4315 21.3488C21.4315 21.2018 21.4315 21.0549 21.5072 20.9814C21.5072 20.9814 21.8099 20.6141 22.0369 20.3937C22.1883 20.2468 22.264 20.0264 22.4153 19.8794C22.5667 19.659 22.6423 19.3652 22.5667 19.1447C22.491 18.7774 21.5829 16.7938 21.3558 16.353C21.2045 16.1326 21.0531 16.0591 20.8261 15.9857H20.5991C20.4477 15.9857 20.2207 15.9857 19.9937 15.9857C19.8423 15.9857 19.691 16.0591 19.5396 16.0591L19.464 16.1326C19.3126 16.2061 19.1613 16.353 19.0099 16.4265C18.8586 16.5734 18.7829 16.7203 18.6315 16.8673C18.1018 17.5285 17.7991 18.3366 17.7991 19.1447C17.7991 19.7325 17.9504 20.3202 18.1775 20.8345L18.2531 21.0549C18.9342 22.4508 19.8423 23.6997 21.0531 24.8017L21.3558 25.0956C21.5829 25.316 21.8099 25.4629 21.9613 25.6833C23.5504 27.0057 25.3667 27.9608 27.4099 28.4751C27.6369 28.5485 27.9396 28.5485 28.1667 28.622C28.3937 28.622 28.6964 28.622 28.9234 28.622C29.3018 28.622 29.7558 28.4751 30.0586 28.3281C30.2856 28.1812 30.4369 28.1812 30.5883 28.0343L30.7396 27.8873C30.891 27.7404 31.0423 27.6669 31.1937 27.52C31.345 27.373 31.4964 27.2261 31.5721 27.0792C31.7234 26.7853 31.7991 26.418 31.8748 26.0506C31.8748 25.9037 31.8748 25.6833 31.8748 25.5364C31.8748 25.5364 31.7991 25.4629 31.6477 25.3894Z" fill="white"/>
</g>
</svg>
