<svg width="32" height="23" viewBox="0 0 32 23" fill="none" xmlns="http://www.w3.org/2000/svg">
<g clip-path="url(#clip0_7_197)">
<path d="M31.0702 4.1677C30.8897 3.49805 30.5377 2.88756 30.049 2.39701C29.5604 1.90645 28.9523 1.55296 28.2853 1.37173C25.8433 0.703125 16.0152 0.703125 16.0152 0.703125C16.0152 0.703125 6.18659 0.723363 3.74462 1.39197C3.07758 1.57321 2.46948 1.92672 1.98086 2.4173C1.49225 2.90787 1.14017 3.51839 0.959694 4.18806C0.221054 8.54399 -0.0654779 15.1814 0.979976 19.3631C1.16047 20.0327 1.51256 20.6432 2.00117 21.1338C2.48978 21.6243 3.09788 21.9778 3.7649 22.1591C6.20687 22.8277 16.0352 22.8277 16.0352 22.8277C16.0352 22.8277 25.8635 22.8277 28.3053 22.1591C28.9724 21.9778 29.5805 21.6244 30.0691 21.1338C30.5578 20.6432 30.9099 20.0327 31.0904 19.3631C31.8695 15.001 32.1095 8.36776 31.0702 4.16782V4.1677Z" fill="#FF0000"/>
<path d="M12.887 16.5063L21.0403 11.7654L12.8871 7.02441L12.887 16.5063Z" fill="white"/>
</g>
<defs>
<clipPath id="clip0_7_197">
<rect width="31.4681" height="22.2128" fill="white" transform="translate(0.297363 0.703125)"/>
</clipPath>
</defs>
</svg>
